# xmcd CD database file
#
# Track frame offsets:
#	150
#	22986
#	46612
#	65505
#	88051
#	99847
#	122653
#	135629
#	162303
#	182330
#
# Disc length: 2610 seconds
#
# Revision: 0
# Processed by: cddbd v1.5.2PL0 Copyright (c) Steve Scherf et al.
# Submitted via: CDex 1.50
#
DISCID=720a300a
DTITLE=Various Artist - Las Nuevas Estrellas de Areito
DYEAR=2002
DGENRE=Salsa
TTITLE0=Rosendo Diaz - Realidad y Solución
TTITLE1=Tirso Duarte - Tal Como Empezo
TTITLE2=Jose Hernandez - Camarera Del Amor
TTITLE3=Sixto Llorente - Ya No Hace Falta
TTITLE4=Barbara Zamora Vargas - Que Puedes Tu Hablarme De Amor
TTITLE5=Michel Maza - La Habana
TTITLE6=Sixto Llorente - Dame La Mano y Caminemos
TTITLE7=Jose Hernandez y Sixto Llorente - Tres Lindas Cubanas
TTITLE8=Jose Luis Cortes - Suspende Los Comentarios
TTITLE9=Aramis Galindo, Sixto Llorente y Jose Hernandez - Sabe A Cubano
EXTD=YEAR: 2002
EXTT0=
EXTT1=
EXTT2=
EXTT3=
EXTT4=
EXTT5=
EXTT6=
EXTT7=
EXTT8=
EXTT9=
PLAYORDER=
